<svg xmlns="http://www.w3.org/2000/svg" xmlns:xlink="http://www.w3.org/1999/xlink" viewBox="0 0 24 24" fill="#010101">
  <path d="M5.5 2C3.567 2 2 3.567 2 5.5C2 7.433 3.567 9 5.5 9C7.433 9 9 7.433 9 5.5C9 3.567 7.433 2 5.5 2 z M 22 3L16.699219 3.8007812L18.242188 5.34375L15.177734 8.4082031L13.568359 6.9003906L9.4921875 11.078125L8.0078125 9.59375L3.3027344 14.203125L4.703125 15.630859L7.9921875 12.40625L9.5078125 13.921875L13.630859 9.6992188L15.222656 11.191406L19.65625 6.7578125L21.199219 8.3007812L22 3 z M 5.8984375 3.5L6.1542969 3.5L6.1542969 7.5L4.7949219 7.5L4.7949219 5.0078125L4 5.3144531L4 4.2773438L5.8984375 3.5 z M 19 11L19 22L21 22L21 11L19 11 z M 15 13L15 22L17 22L17 13L15 13 z M 11 15L11 22L13 22L13 15L11 15 z M 7 17L7 22L9 22L9 17L7 17 z M 3 19L3 22L5 22L5 19L3 19 z" fill="#010101" />
</svg>